<svg width="551" height="616" viewBox="0 0 551 616" fill="none" xmlns="http://www.w3.org/2000/svg">
<path d="M530.665 232.425C519.671 338.831 525.49 422.614 365.753 422.614C206.016 422.614 -169.574 518.966 87.5183 193.047C9.71378 -59.1424 155.174 -23.953 395.353 72.3984C614.389 -98.5207 541.659 126.02 530.665 232.425Z" fill="#EE1348"/>
<path d="M254 609.533C394.28 609.533 508 548.566 508 473.359C508 398.152 394.28 337.185 254 337.185C113.72 337.185 0 398.152 0 473.359C0 548.566 113.72 609.533 254 609.533Z" fill="#FFD0C2"/>
<path d="M34.5593 539.931L181.715 463.155L239.351 446.205L262.651 438.635L285.661 441.26L74.8934 558.855C74.8934 558.855 64.6371 553.402 34.5593 539.931Z" fill="url(#paint0_linear_3_18)"/>
<path d="M107.245 594.099L283.877 501.879L334.155 522.228L357.455 514.658L380.465 517.283L198.661 615.934C198.661 615.934 137.346 607.509 107.245 594.099Z" fill="url(#paint1_linear_3_18)"/>
<path d="M280.466 101.781L295.337 107.784L281.046 113.522L277.612 106.766" fill="#EF7F6C"/>
<path d="M144.971 500.495L268.515 434.789C273.472 432.151 277.588 428.377 280.454 423.84C283.321 419.304 284.839 414.162 284.858 408.926L288.849 110.47C288.849 102.636 275.471 98.6475 268.136 102.636L140.333 171.455C137.162 173.164 134.533 175.598 132.708 178.517C130.882 181.436 129.921 184.739 129.921 188.101V492.62C129.925 494.225 130.392 495.801 131.275 497.189C132.158 498.577 133.427 499.728 134.953 500.526C136.478 501.325 138.208 501.742 139.966 501.737C141.725 501.731 143.451 501.303 144.971 500.495Z" fill="#EF7F6C"/>
<path d="M135.071 500.597L151.236 508.39L149.363 498.114L138.148 496.263" fill="#EF7F6C"/>
<path d="M160.467 507.983L284.011 442.277C288.988 439.633 293.119 435.844 295.99 431.288C298.862 426.732 300.374 421.568 300.376 416.312V115.008C300.38 113.598 299.974 112.213 299.2 110.993C298.426 109.773 297.311 108.762 295.97 108.063C294.628 107.364 293.108 107.002 291.563 107.014C290.019 107.026 288.505 107.411 287.177 108.13L155.785 178.984C152.613 180.693 149.985 183.127 148.159 186.046C146.333 188.965 145.372 192.268 145.372 195.63V500.088C145.367 501.701 145.831 503.286 146.715 504.683C147.599 506.079 148.872 507.237 150.405 508.039C151.939 508.841 153.677 509.259 155.444 509.249C157.212 509.239 158.944 508.802 160.467 507.983Z" fill="#F4F4F4"/>
<path d="M153.243 213.964L294 140.301V403.879L153.243 478.152V213.964Z" fill="#68E1FD"/>
<path d="M243.081 453.372C244.205 449.076 242.291 444.978 238.806 444.218C235.32 443.459 231.584 446.325 230.46 450.621C229.336 454.917 231.25 459.015 234.735 459.775C238.221 460.535 241.957 457.668 243.081 453.372Z" fill="#BABABC"/>
<path d="M242.005 152.979C242.003 153.483 241.856 153.978 241.578 154.414C241.3 154.85 240.901 155.211 240.422 155.461L213.22 169.705C212.743 169.955 212.202 170.085 211.652 170.084C211.102 170.083 210.562 169.95 210.086 169.699C209.609 169.447 209.214 169.086 208.938 168.652C208.663 168.218 208.517 167.725 208.515 167.223V166.612C208.518 166.101 208.67 165.599 208.956 165.159C209.242 164.718 209.652 164.356 210.143 164.109L237.345 150.496C237.821 150.257 238.357 150.134 238.9 150.141C239.444 150.147 239.976 150.281 240.446 150.532C240.915 150.782 241.306 151.139 241.579 151.567C241.852 151.996 241.999 152.483 242.005 152.979Z" fill="#CCCCCC"/>
<path d="M257.394 146.378C258.198 144.397 257.557 142.354 255.963 141.816C254.37 141.278 252.426 142.448 251.623 144.429C250.819 146.41 251.46 148.453 253.053 148.991C254.647 149.53 256.59 148.36 257.394 146.378Z" fill="#CCCCCC"/>
<path d="M254.334 204.298V220.964C254.336 221.562 254.508 222.15 254.833 222.67C255.159 223.19 255.626 223.624 256.19 223.929C256.754 224.235 257.395 224.402 258.051 224.413C258.706 224.425 259.354 224.281 259.931 223.996L276.809 215.612C277.404 215.313 277.899 214.874 278.245 214.341C278.59 213.808 278.772 213.2 278.771 212.58V195.447C278.768 194.843 278.592 194.25 278.26 193.728C277.928 193.205 277.452 192.771 276.879 192.469C276.307 192.166 275.657 192.006 274.996 192.004C274.334 192.001 273.683 192.157 273.108 192.455L256.118 201.368C255.573 201.679 255.123 202.11 254.811 202.623C254.499 203.135 254.335 203.712 254.334 204.298Z" fill="#EF7F6C"/>
<path d="M169.43 248.659V265.324C169.432 265.923 169.604 266.511 169.929 267.03C170.254 267.55 170.721 267.984 171.285 268.29C171.849 268.595 172.491 268.762 173.146 268.774C173.802 268.785 174.45 268.641 175.026 268.356L191.905 259.891C192.499 259.592 192.995 259.153 193.34 258.62C193.685 258.087 193.867 257.479 193.867 256.859V239.807C193.864 239.203 193.687 238.61 193.355 238.088C193.024 237.566 192.548 237.132 191.975 236.829C191.402 236.527 190.753 236.366 190.091 236.364C189.43 236.361 188.779 236.517 188.203 236.816L171.392 245.667C170.804 245.963 170.313 246.395 169.968 246.921C169.623 247.446 169.437 248.046 169.43 248.659Z" fill="#7EB753"/>
<path d="M212.863 227.211V243.877C212.865 244.475 213.037 245.063 213.362 245.583C213.687 246.103 214.155 246.536 214.719 246.842C215.283 247.147 215.924 247.314 216.58 247.326C217.235 247.338 217.883 247.194 218.46 246.909L235.338 238.444C235.932 238.145 236.428 237.706 236.773 237.172C237.118 236.639 237.3 236.031 237.3 235.412V218.359C237.301 217.749 237.126 217.15 236.792 216.622C236.458 216.094 235.977 215.656 235.397 215.352C234.818 215.048 234.16 214.89 233.492 214.893C232.824 214.896 232.169 215.06 231.592 215.368L214.714 224.22C214.147 224.528 213.678 224.966 213.353 225.491C213.028 226.016 212.86 226.609 212.863 227.211Z" fill="#F2F2F2"/>
<path d="M200.837 425.728C203.895 416.945 200.571 408.142 193.412 406.066C186.254 403.99 177.971 409.426 174.913 418.209C171.855 426.992 175.179 435.794 182.338 437.871C189.496 439.947 197.779 434.511 200.837 425.728Z" fill="#F2F2F2"/>
<path d="M193.458 418.819C194.296 415.305 192.829 412.03 190.181 411.505C187.534 410.979 184.709 413.402 183.872 416.916C183.035 420.43 184.502 423.705 187.149 424.23C189.796 424.756 192.621 422.333 193.458 418.819Z" fill="#C4B7B3"/>
<path d="M179.04 436.274C179.04 436.274 181.983 424.513 189.407 423.088C196.832 421.664 198.66 430.251 198.66 430.251C197.673 432.058 196.295 433.664 194.609 434.972C192.922 436.28 190.964 437.263 188.85 437.861C181.425 440.141 179.04 436.274 179.04 436.274Z" fill="#C4B7B3"/>
<path d="M245.477 402.945C248.789 393.434 245.185 383.9 237.428 381.65C229.67 379.4 220.697 385.287 217.385 394.797C214.074 404.308 217.677 413.842 225.435 416.092C233.192 418.342 242.165 412.456 245.477 402.945Z" fill="#EA7554"/>
<path d="M225.26 390.612C225.728 390.49 229.875 392.87 229.719 393.664C229.563 394.458 227.49 397.144 227.802 397.632C228.114 398.12 232.261 402.923 234.624 403.228C236.212 402.324 237.704 401.288 239.084 400.135C239.85 400.402 240.528 400.843 241.055 401.416C241.581 401.99 241.939 402.676 242.094 403.411C242.094 404.286 238.237 407.237 235.851 407.989C232.752 408.966 223.209 399.301 222.072 396.777C220.935 394.254 225.26 390.612 225.26 390.612Z" fill="white"/>
<path d="M259.128 266.769V283.435C259.13 284.033 259.302 284.621 259.627 285.141C259.952 285.661 260.42 286.094 260.984 286.4C261.548 286.706 262.189 286.872 262.844 286.884C263.5 286.896 264.148 286.752 264.725 286.467L281.603 278.002C282.197 277.703 282.693 277.264 283.038 276.731C283.383 276.197 283.565 275.589 283.565 274.97V257.917C283.562 257.313 283.386 256.721 283.054 256.198C282.722 255.676 282.246 255.242 281.673 254.94C281.101 254.637 280.451 254.477 279.789 254.474C279.128 254.472 278.477 254.628 277.902 254.926L261.023 263.778C260.448 264.081 259.97 264.517 259.637 265.042C259.305 265.567 259.129 266.163 259.128 266.769Z" fill="#7EB753"/>
<path d="M175.673 310.458V327.124C175.675 327.722 175.847 328.31 176.172 328.83C176.497 329.349 176.965 329.783 177.528 330.089C178.092 330.394 178.734 330.561 179.389 330.573C180.045 330.584 180.693 330.441 181.269 330.155L198.148 321.69C198.742 321.392 199.238 320.953 199.583 320.419C199.928 319.886 200.11 319.278 200.11 318.658V301.606C200.107 301.002 199.93 300.41 199.598 299.887C199.267 299.365 198.791 298.931 198.218 298.628C197.645 298.326 196.996 298.165 196.334 298.163C195.673 298.161 195.022 298.316 194.446 298.615L177.568 307.467C176.993 307.77 176.515 308.206 176.182 308.731C175.849 309.256 175.674 309.851 175.673 310.458Z" fill="#EF7F6C"/>
<path d="M219.731 287.993V304.658C219.732 305.257 219.904 305.845 220.23 306.365C220.555 306.884 221.022 307.318 221.586 307.624C222.15 307.929 222.791 308.096 223.447 308.108C224.103 308.119 224.75 307.976 225.327 307.69L242.205 299.225C242.8 298.927 243.296 298.488 243.641 297.954C243.986 297.421 244.168 296.813 244.167 296.193V279.141C244.164 278.537 243.988 277.945 243.656 277.422C243.324 276.9 242.848 276.466 242.276 276.163C241.703 275.861 241.054 275.7 240.392 275.698C239.73 275.696 239.079 275.851 238.504 276.15L221.626 285.002C221.05 285.305 220.572 285.741 220.24 286.266C219.907 286.791 219.731 287.386 219.731 287.993Z" fill="#7EB753"/>
<path d="M260.577 375.37V392.036C260.579 392.635 260.751 393.222 261.076 393.742C261.402 394.262 261.869 394.696 262.433 395.001C262.997 395.307 263.638 395.474 264.294 395.485C264.949 395.497 265.597 395.353 266.174 395.068L282.874 386.542C283.468 386.243 283.964 385.804 284.309 385.271C284.654 384.737 284.836 384.129 284.836 383.51V366.458C284.833 365.854 284.656 365.261 284.325 364.739C283.993 364.216 283.517 363.782 282.944 363.48C282.371 363.177 281.722 363.017 281.06 363.015C280.399 363.012 279.748 363.168 279.173 363.466L262.383 372.298C261.811 372.618 261.343 373.071 261.025 373.611C260.708 374.151 260.553 374.758 260.577 375.37Z" fill="#FFAC99"/>
<path d="M278.735 382.178C280.316 378.823 279.433 375.254 276.763 374.206C274.094 373.158 270.648 375.029 269.067 378.384C267.486 381.739 268.368 385.309 271.038 386.357C273.708 387.404 277.154 385.534 278.735 382.178Z" fill="white"/>
<path d="M404.924 126.81C406.431 126.104 407.698 125.035 408.586 123.718C409.474 122.402 409.95 120.888 409.963 119.342V75.8161C409.96 74.3271 409.527 72.865 408.709 71.5769C407.89 70.2887 406.715 69.2198 405.3 68.4775C403.886 67.7351 402.283 67.3455 400.651 67.3478C399.019 67.3502 397.417 67.7443 396.005 68.4906L321.313 108.252C319.876 109.016 318.69 110.117 317.878 111.441C317.067 112.766 316.659 114.264 316.697 115.781L319.217 170.845L404.924 126.81Z" fill="#68E1FD"/>
<path d="M319.217 170.845V182.83L337.009 156.804" fill="#68E1FD"/>
<path d="M330.499 122.15L395.939 87.9033L330.499 122.15Z" fill="#FFAC99"/>
<path d="M331.926 124.348L397.366 90.101C398.004 89.761 398.469 89.2033 398.657 88.5508C398.845 87.8982 398.741 87.2042 398.369 86.6213C398.184 86.3327 397.939 86.0801 397.648 85.8779C397.357 85.6757 397.024 85.5278 396.67 85.4428C395.955 85.2711 395.195 85.3656 394.556 85.7056L329.094 119.973C328.496 120.332 328.072 120.887 327.911 121.524C327.749 122.16 327.862 122.829 328.226 123.392C328.59 123.954 329.178 124.367 329.866 124.545C330.555 124.723 331.292 124.653 331.926 124.348Z" fill="white"/>
<path d="M333.776 139.548L399.216 105.301L333.776 139.548Z" fill="#FFAC99"/>
<path d="M335.181 141.746L400.621 107.499C401.259 107.159 401.724 106.602 401.912 105.949C402.1 105.296 401.997 104.602 401.624 104.02C401.252 103.437 400.641 103.013 399.926 102.841C399.211 102.669 398.45 102.764 397.811 103.104L332.349 137.351C331.711 137.691 331.246 138.248 331.058 138.901C330.87 139.554 330.974 140.248 331.346 140.83C331.719 141.413 332.33 141.837 333.045 142.009C333.76 142.181 334.52 142.086 335.159 141.746H335.181Z" fill="white"/>
<path d="M371.323 259.057C371.323 259.057 392.527 281.441 393.285 297.597C394.043 313.754 368.96 342.121 368.96 342.121L352.751 318.781C352.751 318.781 373.843 298.879 352.751 283.557C352.751 283.557 345.527 257.714 371.323 259.138" fill="#CE5438"/>
<path d="M363.274 478.498C363.274 478.498 371.256 488.672 370.588 494.492C369.919 500.312 359.774 510.344 357.455 514.556C355.136 518.768 354.534 520.661 357.455 523.693C360.376 526.725 385.236 506.986 385.816 503.812C386.396 500.638 382.338 488.51 382.338 488.51L393.374 501.248L401.423 496.914L384.367 470.704" fill="#EA7554"/>
<path d="M360.108 524.039C360.777 523.428 380.465 517.201 380.465 517.201C380.465 517.201 389.718 508.411 389.383 504.992C389.049 501.574 385.727 488.326 382.271 488.469C378.815 488.611 378.436 506.213 378.436 506.213L360.108 524.039Z" fill="#15156D"/>
<path d="M336.675 495.245L334.155 522.146C334.155 522.146 327.779 526.399 326.218 526.033C324.657 525.667 319.975 524.547 319.93 523.876C319.886 523.204 322.16 504.87 321.536 504.382C320.911 503.893 311.123 518.382 308.158 518.626C305.192 518.87 281.737 506.518 283.966 501.818C286.196 497.117 297.5 499.579 303.074 499.539C308.648 499.498 316.452 496.588 320.51 487.858" fill="#EA7554"/>
<path d="M321.892 422.376L307.623 491.318C307.623 491.318 315.85 501.146 345.326 499.905L367.243 451.068" fill="#3129A3"/>
<path d="M315.582 314.182C315.582 314.182 293.598 343.464 300.354 390.876C306.352 432.896 352.327 482.446 352.327 482.446C352.327 482.446 366.084 487.981 394.69 463.257L363.141 417.391C363.141 417.391 393.932 352.275 357.589 310.946" fill="#3129A3"/>
<path opacity="0.55" d="M232.64 279.385C221.492 278.51 213.822 264.714 215.36 247.987C216.899 231.26 226.932 218.807 238.281 219.682C249.63 220.557 257.099 234.353 255.561 251.08C254.022 267.807 243.877 280.26 232.64 279.385ZM237.657 225.237C230.098 224.647 222.674 235.289 221.47 248.455C220.266 261.621 225.594 273.24 233.175 273.83C240.756 274.42 248.158 263.778 249.362 250.612C250.566 237.446 245.215 225.787 237.657 225.237Z" fill="#F2F2F2"/>
<path d="M253.599 257.999C253.599 254.234 247.267 254.234 247.177 257.999V263.92C246.932 263.493 246.687 263.066 246.464 262.638C243.955 257.189 242.079 251.515 240.868 245.708C240.065 241.944 234.179 243.673 234.691 247.255C235.119 250.103 235.775 252.918 236.654 255.679L236.029 255.435C235.481 255.271 234.901 255.211 234.326 255.26C233.751 255.309 233.194 255.465 232.688 255.719C232.182 255.973 231.738 256.319 231.385 256.735C231.032 257.152 230.776 257.631 230.634 258.141C230.32 259.036 230.266 259.989 230.477 260.909H229.987C229.295 261.123 228.668 261.484 228.158 261.962C227.648 262.439 227.269 263.02 227.052 263.657C226.834 264.294 226.785 264.968 226.908 265.626C227.03 266.283 227.321 266.905 227.757 267.441C226.96 268.015 226.415 268.831 226.219 269.74C226.087 270.779 226.273 271.832 226.758 272.78C227.242 273.728 228.005 274.536 228.961 275.112C231.191 276.781 233.577 278.958 235.65 280.769C238.303 283.129 241.291 285.449 243.788 287.342C246.286 289.234 250.343 283.007 250.477 280.911C250.933 281.045 251.418 281.074 251.89 280.998C252.362 280.921 252.806 280.741 253.184 280.472C253.562 280.204 253.862 279.855 254.059 279.456C254.255 279.057 254.342 278.621 254.312 278.185C253.673 271.483 253.435 264.755 253.599 257.999Z" fill="#FFAC99"/>
<path d="M240.778 264.246C239.292 261.37 237.895 258.44 236.587 255.455C236.319 254.824 235.182 255.109 235.472 255.74C236.78 258.806 238.214 261.818 239.775 264.775C240.087 265.406 241.09 264.856 240.778 264.246Z" fill="#AF594A"/>
<path d="M318.927 249.534C318.927 249.534 308.202 258.345 304.055 264.449C299.908 270.554 283.275 287.321 276.43 282.275C269.585 277.228 257.456 267.603 257.456 267.603C257.456 267.603 240.132 278.47 241.848 289.784C241.848 289.784 257.233 318.475 281.202 312.167C305.17 305.859 311.146 297.577 311.146 297.577L314.758 316.237C314.758 316.237 344.501 324.743 358.302 312.167C358.302 312.167 367.355 258.589 360.688 250.592" fill="#EA7554"/>
<path d="M315.605 217.077C315.382 217.688 314.869 237.141 322.115 238.993C329.362 240.845 341.669 236.226 344.858 230.06C348.046 223.894 343.497 204.278 332.059 203.138C320.621 201.999 317.656 211.4 315.605 217.077Z" fill="#FFAC99"/>
<path d="M371.702 247.743C369.651 243.47 366.284 241.17 367.087 236.103C367.711 232.217 368.782 228.391 367.288 224.525C365.794 220.659 362.07 218.705 358.548 216.385C357.527 215.701 356.572 214.939 355.694 214.106L354.936 212.947C352.84 209.691 351.324 205.763 348.514 202.955C345.711 200.402 342.1 198.715 338.191 198.133C334.107 197.456 329.915 197.542 325.868 198.385C321.822 199.228 318.004 200.81 314.646 203.037C314.646 203.037 308.425 208.49 310.387 214.33C312.35 220.17 320.109 218.034 324.412 220.679C329.183 223.63 326.151 229.226 324.144 232.888C322.609 235.632 321.843 238.68 321.915 241.76C321.976 244.631 320.872 247.422 318.815 249.595C316.586 252.443 314 255.414 313.821 259.077C313.464 266.281 321.826 281.461 345.749 275.824C347.288 275.458 348.893 275.031 350.499 274.542C355.605 273.26 360.396 271.098 364.612 268.173C371.323 263.391 375.225 255.089 371.702 247.743Z" fill="#3129A3"/>
<path d="M318.949 436.579C318.949 436.579 344.122 476.341 352.394 482.405L345.37 499.905C345.37 499.905 316.095 462.463 318.949 436.579Z" fill="#15156D"/>
<path d="M362.605 415.295C354.567 399.806 350.097 382.976 349.473 365.847C349.473 364.484 347.087 364.484 347.243 365.847C347.87 383.34 352.423 400.53 360.621 416.353C361.245 417.594 363.141 416.516 362.605 415.295Z" fill="#15156D"/>
<defs>
<linearGradient id="paint0_linear_3_18" x1="174.179" y1="485.254" x2="85.8885" y2="542.151" gradientUnits="userSpaceOnUse">
<stop stop-color="#FFAC8A"/>
<stop offset="0.99" stop-color="#FFD0C2"/>
</linearGradient>
<linearGradient id="paint1_linear_3_18" x1="365.192" y1="500.434" x2="152.851" y2="620.633" gradientUnits="userSpaceOnUse">
<stop stop-color="#FFAC8A"/>
<stop offset="0.99" stop-color="#FFD0C2"/>
</linearGradient>
</defs>
</svg>
